<?xml version="1.0" standalone="no"?>
<!DOCTYPE svg PUBLIC "-//W3C//DTD SVG 20010904//EN"
 "http://www.w3.org/TR/2001/REC-SVG-20010904/DTD/svg10.dtd">
<svg version="1.0" xmlns="http://www.w3.org/2000/svg"
 width="244.000000pt" height="226.000000pt" viewBox="0 0 244.000000 226.000000"
 preserveAspectRatio="xMidYMid meet">

<g transform="translate(0.000000,226.000000) scale(0.100000,-0.100000)"
fill="#000000" stroke="none">
<path d="M1025 2083 c-131 -30 -280 -92 -375 -156 -103 -70 -232 -214 -308
-344 -123 -210 -147 -538 -58 -799 50 -147 117 -253 233 -365 131 -128 225
-187 388 -245 78 -28 84 -29 290 -29 203 0 213 1 300 29 154 49 288 130 405
246 88 86 148 172 196 276 30 65 70 201 62 210 -2 1 -30 -31 -61 -72 -72 -92
-173 -177 -246 -206 -45 -18 -76 -22 -161 -23 -103 0 -107 1 -190 41 -131 63
-206 146 -250 276 -19 57 -22 82 -18 175 3 98 7 115 38 182 19 40 49 92 66
114 18 23 32 42 31 43 -1 1 -32 -2 -68 -7 -81 -10 -220 -68 -317 -133 -70 -46
-158 -138 -200 -206 -38 -64 -63 -176 -69 -312 -3 -71 -9 -128 -14 -128 -17 0
-73 80 -114 165 -61 126 -79 211 -72 333 13 202 67 322 207 463 79 79 110 102
181 137 196 95 425 93 628 -6 111 -54 242 -186 299 -302 23 -47 49 -113 58
-148 21 -87 22 -269 1 -352 -9 -36 -17 -68 -17 -72 0 -15 61 -8 105 13 139 65
218 218 195 377 -17 123 -29 172 -60 245 -113 273 -362 483 -664 561 -86 23
-117 26 -250 25 -83 -1 -160 -3 -171 -6z"/>
</g>
</svg>
