<?xml version="1.0" standalone="no"?>
<!DOCTYPE svg PUBLIC "-//W3C//DTD SVG 20010904//EN"
 "http://www.w3.org/TR/2001/REC-SVG-20010904/DTD/svg10.dtd">
<svg version="1.0" xmlns="http://www.w3.org/2000/svg"
 width="944.000000pt" height="1036.000000pt" viewBox="0 0 944.000000 1036.000000"
 preserveAspectRatio="xMidYMid meet">

<g transform="translate(0.000000,1036.000000) scale(0.100000,-0.100000)"
fill="#000000" stroke="none">
<path d="M4320 8774 c-14 -2 -58 -9 -98 -15 -103 -15 -606 -143 -732 -186
-566 -192 -1053 -496 -1486 -928 -214 -213 -305 -325 -503 -620 -294 -439
-408 -677 -510 -1076 -57 -221 -80 -338 -112 -559 -19 -136 -22 -197 -22 -500
0 -268 4 -374 17 -475 43 -322 131 -688 230 -959 62 -167 158 -391 211 -491
119 -224 166 -301 269 -435 401 -522 941 -982 1456 -1240 131 -66 476 -206
589 -240 324 -96 561 -129 976 -137 329 -6 605 6 780 33 131 21 481 106 620
151 211 68 457 179 690 311 114 65 399 247 470 300 357 271 731 678 962 1046
74 119 269 501 306 601 76 203 133 440 157 650 6 55 13 109 16 120 3 11 -12
-4 -33 -34 -212 -301 -318 -435 -514 -648 -322 -350 -610 -526 -1024 -624 -90
-22 -123 -24 -325 -24 -257 0 -311 8 -527 80 -314 104 -574 260 -787 472 -237
236 -331 388 -440 713 -69 208 -84 312 -92 643 -7 290 -3 321 86 592 109 329
267 600 474 813 78 79 74 88 -22 52 -34 -13 -76 -20 -120 -20 -75 0 -253 -29
-368 -61 -215 -59 -762 -313 -999 -464 -270 -172 -400 -287 -613 -546 -251
-303 -344 -477 -401 -746 -10 -48 -32 -142 -49 -208 -47 -182 -73 -443 -79
-800 -3 -165 -9 -307 -14 -315 -6 -12 -23 0 -78 57 -292 303 -508 723 -601
1173 -12 58 -29 137 -38 175 -13 56 -17 145 -20 433 l-3 363 36 172 c63 299
89 386 176 591 73 168 85 194 162 321 100 166 155 242 262 364 341 387 682
639 1077 795 152 60 357 119 505 146 148 28 581 43 818 30 461 -25 986 -222
1368 -512 136 -103 421 -385 555 -549 160 -195 332 -499 402 -709 58 -174 107
-364 131 -500 22 -126 24 -160 24 -510 0 -423 1 -417 -92 -756 -64 -237 -64
-226 -11 -248 23 -10 79 -20 123 -23 69 -5 91 -2 157 21 42 15 103 40 135 57
146 77 351 235 469 362 111 118 223 333 293 559 75 245 68 513 -24 953 -18 88
-40 200 -49 250 -21 108 -119 361 -219 560 -183 366 -486 793 -749 1052 -306
301 -705 580 -1096 765 -404 191 -956 345 -1357 378 -111 9 -738 12 -795 4z"/>
</g>
</svg>
